<svg xmlns="http://www.w3.org/2000/svg" version="1.1" xmlns:xlink="http://www.w3.org/1999/xlink" width="1000" height="1000"><metadata><rdf:RDF xmlns:rdf="http://www.w3.org/1999/02/22-rdf-syntax-ns#" xmlns:dc="http://purl.org/dc/elements/1.1/"><rdf:Description><dc:creator>RealFaviconGenerator</dc:creator><dc:source>https://realfavicongenerator.net</dc:source></rdf:Description></rdf:RDF></metadata><g clip-path="url(#SvgjsClipPath1001)"><rect width="1000" height="1000" fill="#ffffff"></rect><g transform="matrix(3.5,0,0,3.5,150,150)"><svg xmlns="http://www.w3.org/2000/svg" version="1.1" xmlns:xlink="http://www.w3.org/1999/xlink" viewBox="0 0 200 200" width="200" height="200"><rect width="200" height="200" fill="url('#gradient')"></rect><defs><linearGradient id="gradient" gradientTransform="rotate(45 0.5 0.5)"><stop offset="0%" stop-color="#e86620"></stop><stop offset="100%" stop-color="#ddd887"></stop></linearGradient><clipPath id="SvgjsClipPath1001"><rect width="1000" height="1000" x="0" y="0" rx="350" ry="350"></rect></clipPath></defs><g><g fill="#e9c2cb" transform="matrix(3.9844357976653697,0,0,3.9844357976653697,7.7014850292224395,128.7296962775145)" stroke="#e66c46" stroke-width="0.2"><path d="M10.79-2.54L10.79 0L0.87 0L0.87-2.15L5.44-6.95Q7.13-8.88 7.13-10.01L7.13-10.01Q7.13-10.93 6.73-11.41Q6.33-11.88 5.57-11.88L5.57-11.88Q4.81-11.88 4.35-11.25Q3.88-10.61 3.88-9.65L3.88-9.65L0.58-9.65Q0.58-10.96 1.23-12.07Q1.88-13.17 3.05-13.80Q4.21-14.42 5.64-14.42L5.64-14.42Q7.95-14.42 9.19-13.36Q10.44-12.29 10.44-10.30L10.44-10.30Q10.44-9.46 10.13-8.67Q9.81-7.87 9.16-7.00Q8.50-6.12 7.03-4.66L7.03-4.66L5.20-2.54L10.79-2.54ZM19.75-14.22L19.75 0L16.45 0L16.45-10.51L13.20-9.56L13.20-12.06L19.44-14.22L19.75-14.22ZM33.96-2.54L33.96 0L24.03 0L24.03-2.15L28.60-6.95Q30.29-8.88 30.29-10.01L30.29-10.01Q30.29-10.93 29.89-11.41Q29.49-11.88 28.73-11.88L28.73-11.88Q27.98-11.88 27.51-11.25Q27.04-10.61 27.04-9.65L27.04-9.65L23.74-9.65Q23.74-10.96 24.39-12.07Q25.05-13.17 26.21-13.80Q27.37-14.42 28.81-14.42L28.81-14.42Q31.11-14.42 32.36-13.36Q33.60-12.29 33.60-10.30L33.60-10.30Q33.60-9.46 33.29-8.67Q32.98-7.87 32.32-7.00Q31.66-6.12 30.20-4.66L30.20-4.66L28.36-2.54L33.96-2.54ZM44.31-14.22L44.31-5.56L45.75-5.56L45.75-3.02L44.31-3.02L44.31 0L41.02 0L41.02-3.02L35.52-3.02L35.32-5.03L41.02-14.19L41.02-14.22L44.31-14.22ZM40.81-9.60L38.46-5.56L41.02-5.56L41.02-9.93L40.81-9.60Z"></path></g></g></svg></g></g></svg>